<!DOCTYPE svg PUBLIC "-//W3C//DTD SVG 1.1//EN" "http://www.w3.org/Graphics/SVG/1.1/DTD/svg11.dtd">
<!-- Uploaded to: SVG Repo, www.svgrepo.com, Transformed by: SVG Repo Mixer Tools -->
<svg width="800px" height="800px" viewBox="0 0 20 20" version="1.1" xmlns="http://www.w3.org/2000/svg" fill="#ffffff" stroke="#ffffff">
<g id="SVGRepo_bgCarrier" stroke-width="0"/>
<g id="SVGRepo_tracerCarrier" stroke-linecap="round" stroke-linejoin="round"/>
<g id="SVGRepo_iconCarrier"> <g id="layer1"> <path d="M 54 -71.5 L 51.5 -69 L 52.011719 -67.5 L 52 -67.5 L 49.5 -65 L 49.5 -61 L 51.5 -58.550781 L 51.5 -53 L 53 -51.5 L 55 -51.5 L 56.5 -53 L 56.5 -58.550781 L 56.501953 -58.550781 L 58.5 -61 L 58.5 -65 L 56 -67.5 L 55.988281 -67.5 L 56.5 -69 L 54 -71.5 z M 49 -70.5 L 48.380859 -70.412109 L 48.302734 -70.388672 L 47.763672 -70.158203 L 46.5 -68 L 47.011719 -66.5 L 47 -66.5 L 44.5 -64 L 44.5 -61 L 46.498047 -58.550781 L 46.5 -58.550781 L 46.5 -55 L 48 -53.5 L 49.5 -53.5 L 50.5 -53.5 L 50.5 -54.5 L 49.5 -54.5 L 49.5 -56.589844 L 49.5 -58 L 49 -58.5 L 48.5 -58 L 48.5 -54.5 L 48 -54.5 L 47.5 -55 L 47.5 -63 L 47 -63.5 L 46.5 -63 L 46.5 -59.589844 L 45.5 -61 L 45.5 -64 L 47 -65.5 L 47.011719 -65.5 L 48.011719 -66.5 L 47.78125 -67.142578 L 47.5 -68 L 49 -69.5 L 49.705078 -69.326172 L 50.039062 -69.207031 L 50.539062 -69.707031 L 50.384766 -70.060547 L 50.240234 -70.158203 L 49 -70.5 z M 54 -70.5 L 55.5 -69 L 55.21875 -68.142578 L 54.988281 -67.5 L 55.988281 -66.5 L 56 -66.5 L 57.5 -65 L 57.5 -61 L 56.5 -59.589844 L 56.5 -64 L 56 -64.5 L 55.5 -64 L 55.5 -53 L 55 -52.5 L 54.5 -52.5 L 54.5 -58 L 54 -58.5 L 53.5 -58 L 53.5 -52.5 L 53 -52.5 L 52.5 -53 L 52.5 -64 L 52 -64.5 L 51.5 -64 L 51.5 -59.589844 L 50.5 -61 L 50.5 -65 L 52 -66.5 L 52.011719 -66.5 L 53.011719 -67.5 L 52.78125 -68.142578 L 52.5 -69 L 54 -70.5 z M 59 -70.5 L 57.759766 -70.158203 L 57.615234 -70.060547 L 57.460938 -69.707031 L 57.960938 -69.207031 L 58.294922 -69.326172 L 59 -69.5 L 60.5 -68 L 60.21875 -67.142578 L 59.988281 -66.5 L 60.988281 -65.5 L 61 -65.5 L 62.5 -64 L 62.5 -61 L 61.5 -59.589844 L 61.5 -63 L 61 -63.5 L 60.5 -63 L 60.5 -55 L 60 -54.5 L 59.5 -54.5 L 59.5 -58 L 59 -58.5 L 58.5 -58 L 58.5 -56.589844 L 58.5 -54.5 L 57.5 -54.5 L 57.5 -53.5 L 58.5 -53.5 L 60 -53.5 L 61.5 -55 L 61.5 -58.550781 L 61.501953 -58.550781 L 63.5 -61 L 63.5 -64 L 61 -66.5 L 60.988281 -66.5 L 61.5 -68 L 60.236328 -70.158203 L 59.697266 -70.388672 L 59.619141 -70.412109 L 59 -70.5 z M 38.25 -54.25 L 35.75 -51.75 L 36.261719 -50.25 L 36.25 -50.25 L 33.75 -47.75 L 33.75 -43.75 L 35.75 -41.300781 L 35.75 -35.75 L 37.25 -34.25 L 39.25 -34.25 L 40.75 -35.75 L 40.75 -41.300781 L 40.751953 -41.300781 L 42.75 -43.75 L 42.75 -47.75 L 40.25 -50.25 L 40.238281 -50.25 L 40.75 -51.75 L 38.25 -54.25 z M 38.25 -53.25 L 39.75 -51.75 L 39.46875 -50.892578 L 39.238281 -50.25 L 40.238281 -49.25 L 40.25 -49.25 L 41.75 -47.75 L 41.75 -43.75 L 40.75 -42.339844 L 40.75 -46.75 L 40.25 -47.25 L 39.75 -46.75 L 39.75 -35.75 L 39.25 -35.25 L 38.75 -35.25 L 38.75 -40.75 L 38.25 -41.25 L 37.75 -40.75 L 37.75 -35.25 L 37.25 -35.25 L 36.75 -35.75 L 36.75 -46.75 L 36.25 -47.25 L 35.75 -46.75 L 35.75 -42.339844 L 34.75 -43.75 L 34.75 -47.75 L 36.25 -49.25 L 36.261719 -49.25 L 37.261719 -50.25 L 37.03125 -50.892578 L 36.75 -51.75 L 38.25 -53.25 z M 12 -52.25 L 9.5 -49.75 L 10.011719 -48.25 L 10.011719 -48.248047 L 10 -48.25 L 5 -48.25 L 3.5 -46.75 L 5 -45.25 L 9.5 -45.25 L 9.5 -33.75 L 11 -32.25 L 13 -32.25 L 14.5 -33.75 L 14.5 -39.300781 L 14.501953 -39.300781 L 16.5 -41.75 L 16.5 -45.75 L 14 -48.25 L 13.988281 -48.25 L 14.5 -49.75 L 12 -52.25 z M 12 -51.25 L 13.5 -49.75 L 13.21875 -48.892578 L 12.988281 -48.25 L 13.988281 -47.25 L 14 -47.25 L 15.5 -45.75 L 15.5 -41.75 L 14.5 -40.339844 L 14.5 -44.75 L 14 -45.25 L 13.5 -44.75 L 13.5 -33.75 L 13 -33.25 L 12.5 -33.25 L 12.5 -39.75 L 12 -40.25 L 11.5 -39.75 L 11.5 -33.25 L 11 -33.25 L 10.5 -33.75 L 10.5 -45.75 L 10 -46.25 L 5 -46.25 L 4.5 -46.75 L 5 -47.25 L 10 -47.25 L 10.011719 -47.251953 L 11.011719 -48.25 L 10.78125 -48.892578 L 10.5 -49.75 L 12 -51.25 z M 77.78125 -45.361328 L 77.345703 -45.341797 L 76.914062 -45.285156 L 76.486328 -45.191406 L 76.070312 -45.058594 L 75.667969 -44.892578 L 75.28125 -44.691406 L 74.914062 -44.455078 L 74.568359 -44.189453 L 74.244141 -43.896484 L 73.951172 -43.574219 L 73.685547 -43.228516 L 73.451172 -42.861328 L 73.25 -42.472656 L 73.083984 -42.070312 L 72.951172 -41.654297 L 72.857422 -41.228516 L 72.800781 -40.794922 L 72.78125 -40.359375 L 72.798828 -39.679688 L 72.855469 -39.001953 L 72.947266 -38.326172 L 73.076172 -37.658203 L 73.240234 -37 L 73.441406 -36.347656 L 73.679688 -35.708984 L 73.947266 -35.085938 L 74.251953 -34.476562 L 74.433594 -34.167969 L 74.644531 -33.876953 L 74.710938 -33.765625 L 74.746094 -33.640625 L 74.75 -33.513672 L 74.71875 -33.386719 L 74.65625 -33.273438 L 74.568359 -33.179688 L 74.458984 -33.111328 L 74.333984 -33.074219 L 73.476562 -32.912109 L 72.625 -32.714844 L 71.783203 -32.482422 L 70.951172 -32.214844 L 70.132812 -31.916016 L 69.816406 -31.769531 L 69.519531 -31.589844 L 69.246094 -31.375 L 68.998047 -31.130859 L 68.779297 -30.861328 L 68.595703 -30.566406 L 68.445312 -30.251953 L 68.246094 -29.708984 L 68.078125 -29.152344 L 67.949219 -28.585938 L 67.855469 -28.015625 L 67.800781 -27.4375 L 67.78125 -26.857422 L 67.800781 -26.716797 L 67.861328 -26.585938 L 67.953125 -26.478516 L 68.074219 -26.402344 L 68.208984 -26.361328 L 68.353516 -26.361328 L 68.488281 -26.402344 L 68.609375 -26.478516 L 68.701172 -26.585938 L 68.761719 -26.716797 L 68.78125 -26.857422 L 68.798828 -27.373047 L 68.847656 -27.884766 L 68.929688 -28.396484 L 69.044922 -28.896484 L 69.193359 -29.392578 L 69.371094 -29.875 L 69.490234 -30.119141 L 69.640625 -30.34375 L 69.820312 -30.544922 L 70.025391 -30.720703 L 70.251953 -30.869141 L 70.496094 -30.982422 L 71.277344 -31.271484 L 72.068359 -31.525391 L 72.869141 -31.746094 L 73.681641 -31.933594 L 74.498047 -32.087891 L 74.728516 -32.144531 L 74.951172 -32.238281 L 75.152344 -32.365234 L 75.332031 -32.525391 L 75.482422 -32.708984 L 75.603516 -32.917969 L 75.691406 -33.140625 L 75.738281 -33.375 L 75.751953 -33.613281 L 75.724609 -33.851562 L 75.660156 -34.082031 L 75.560547 -34.298828 L 75.429688 -34.496094 L 75.271484 -34.716797 L 75.134766 -34.945312 L 74.855469 -35.505859 L 74.607422 -36.082031 L 74.390625 -36.667969 L 74.205078 -37.267578 L 74.054688 -37.875 L 73.935547 -38.490234 L 73.849609 -39.109375 L 73.796875 -39.732422 L 73.78125 -40.359375 L 73.800781 -40.751953 L 73.859375 -41.140625 L 73.953125 -41.521484 L 74.085938 -41.890625 L 74.253906 -42.246094 L 74.455078 -42.582031 L 74.689453 -42.898438 L 74.951172 -43.189453 L 75.244141 -43.453125 L 75.558594 -43.6875 L 75.896484 -43.886719 L 76.251953 -44.056641 L 76.621094 -44.1875 L 77 -44.283203 L 77.388672 -44.341797 L 77.78125 -44.361328 L 78.173828 -44.341797 L 78.5625 -44.283203 L 78.941406 -44.1875 L 79.310547 -44.056641 L 79.667969 -43.886719 L 80.003906 -43.6875 L 80.318359 -43.453125 L 80.611328 -43.189453 L 80.873047 -42.898438 L 81.107422 -42.582031 L 81.308594 -42.246094 L 81.476562 -41.890625 L 81.609375 -41.521484 L 81.705078 -41.140625 L 81.763672 -40.751953 L 81.78125 -40.359375 L 81.765625 -39.732422 L 81.712891 -39.109375 L 81.626953 -38.490234 L 81.509766 -37.875 L 81.357422 -37.267578 L 81.171875 -36.667969 L 80.955078 -36.082031 L 80.707031 -35.505859 L 80.427734 -34.945312 L 80.291016 -34.716797 L 80.132812 -34.496094 L 80.001953 -34.298828 L 79.902344 -34.082031 L 79.837891 -33.851562 L 79.810547 -33.613281 L 79.824219 -33.375 L 79.873047 -33.140625 L 79.958984 -32.917969 L 80.080078 -32.708984 L 80.232422 -32.525391 L 80.410156 -32.365234 L 80.611328 -32.238281 L 80.833984 -32.144531 L 81.064453 -32.087891 L 81.880859 -31.933594 L 82.693359 -31.746094 L 83.494141 -31.525391 L 84.287109 -31.271484 L 85.066406 -30.982422 L 85.310547 -30.869141 L 85.537109 -30.720703 L 85.742188 -30.544922 L 85.921875 -30.34375 L 86.072266 -30.119141 L 86.191406 -29.875 L 86.369141 -29.392578 L 86.517578 -28.896484 L 86.632812 -28.396484 L 86.714844 -27.884766 L 86.763672 -27.373047 L 86.78125 -26.857422 L 86.800781 -26.716797 L 86.861328 -26.585938 L 86.953125 -26.478516 L 87.074219 -26.402344 L 87.208984 -26.361328 L 87.353516 -26.361328 L 87.490234 -26.402344 L 87.609375 -26.478516 L 87.701172 -26.585938 L 87.761719 -26.716797 L 87.78125 -26.857422 L 87.761719 -27.4375 L 87.707031 -28.015625 L 87.613281 -28.587891 L 87.484375 -29.152344 L 87.316406 -29.708984 L 87.117188 -30.251953 L 86.966797 -30.566406 L 86.783203 -30.861328 L 86.564453 -31.130859 L 86.316406 -31.375 L 86.044922 -31.589844 L 85.748047 -31.769531 L 85.429688 -31.916016 L 84.611328 -32.214844 L 83.779297 -32.482422 L 82.9375 -32.714844 L 82.087891 -32.912109 L 81.228516 -33.074219 L 81.103516 -33.111328 L 80.994141 -33.179688 L 80.90625 -33.273438 L 80.84375 -33.386719 L 80.814453 -33.513672 L 80.816406 -33.640625 L 80.851562 -33.765625 L 80.917969 -33.876953 L 81.128906 -34.167969 L 81.310547 -34.476562 L 81.615234 -35.085938 L 81.884766 -35.708984 L 82.121094 -36.347656 L 82.322266 -37 L 82.486328 -37.658203 L 82.615234 -38.326172 L 82.707031 -39.001953 L 82.763672 -39.679688 L 82.78125 -40.359375 L 82.763672 -40.794922 L 82.705078 -41.228516 L 82.611328 -41.654297 L 82.478516 -42.070312 L 82.3125 -42.472656 L 82.111328 -42.861328 L 81.878906 -43.228516 L 81.611328 -43.574219 L 81.318359 -43.896484 L 80.994141 -44.189453 L 80.650391 -44.455078 L 80.28125 -44.691406 L 79.894531 -44.892578 L 79.492188 -45.058594 L 79.076172 -45.191406 L 78.648438 -45.285156 L 78.216797 -45.341797 L 77.78125 -45.361328 z M 103.51758 -34.021484 L 103.12305 -34.005859 L 102.73242 -33.958984 L 102.3457 -33.882812 L 101.9668 -33.777344 L 101.5957 -33.640625 L 101.23828 -33.476562 L 100.89453 -33.285156 L 100.56641 -33.066406 L 100.25586 -32.824219 L 99.966797 -32.556641 L 99.699219 -32.267578 L 99.455078 -31.960938 L 99.236328 -31.634766 L 99.042969 -31.291016 L 98.876953 -30.935547 L 98.742188 -30.566406 L 98.634766 -30.1875 L 98.556641 -29.802734 L 98.511719 -29.412109 L 98.496094 -29.021484 L 98.511719 -28.408203 L 98.554688 -27.796875 L 98.630859 -27.189453 L 98.736328 -26.585938 L 98.871094 -25.988281 L 99.035156 -25.396484 L 99.226562 -24.816406 L 99.447266 -24.244141 L 99.697266 -23.685547 L 99.972656 -23.136719 L 100.15625 -22.828125 L 100.36523 -22.537109 L 100.42773 -22.439453 L 100.46484 -22.332031 L 100.47461 -22.216797 L 100.45898 -22.101562 L 100.41602 -21.996094 L 100.35352 -21.900391 L 100.26758 -21.824219 L 100.16602 -21.767578 L 100.05664 -21.734375 L 99.335938 -21.601562 L 98.623047 -21.445312 L 97.914062 -21.265625 L 97.212891 -21.060547 L 96.519531 -20.830078 L 95.833984 -20.576172 L 95.554688 -20.451172 L 95.291016 -20.298828 L 95.042969 -20.119141 L 94.814453 -19.917969 L 94.609375 -19.693359 L 94.427734 -19.451172 L 94.271484 -19.189453 L 94.140625 -18.914062 L 93.962891 -18.443359 L 93.8125 -17.964844 L 93.689453 -17.478516 L 93.59375 -16.986328 L 93.525391 -16.490234 L 93.517578 -16.285156 L 93.537109 -16.083984 L 93.583984 -15.886719 L 93.65625 -15.697266 L 93.753906 -15.519531 L 93.873047 -15.355469 L 94.017578 -15.210938 L 94.175781 -15.085938 L 94.353516 -14.984375 L 94.541016 -14.904297 L 94.738281 -14.855469 L 95.896484 -14.646484 L 97.060547 -14.46875 L 98.228516 -14.320312 L 99.400391 -14.201172 L 100.57422 -14.111328 L 101.75195 -14.050781 L 102.92969 -14.021484 L 104.10547 -14.021484 L 105.2832 -14.050781 L 106.46094 -14.111328 L 107.63477 -14.201172 L 108.80664 -14.320312 L 109.97461 -14.46875 L 111.13672 -14.646484 L 112.29688 -14.855469 L 112.49414 -14.904297 L 112.68164 -14.984375 L 112.85742 -15.085938 L 113.01758 -15.210938 L 113.16016 -15.355469 L 113.28125 -15.519531 L 113.37891 -15.697266 L 113.45117 -15.886719 L 113.49805 -16.083984 L 113.51758 -16.285156 L 113.50977 -16.490234 L 113.44141 -16.986328 L 113.3457 -17.478516 L 113.22266 -17.964844 L 113.07227 -18.443359 L 112.89453 -18.914062 L 112.76562 -19.189453 L 112.60742 -19.451172 L 112.42578 -19.693359 L 112.2207 -19.917969 L 111.99219 -20.119141 L 111.74414 -20.298828 L 111.48047 -20.451172 L 111.20117 -20.576172 L 110.51562 -20.830078 L 109.82227 -21.060547 L 109.12109 -21.265625 L 108.41406 -21.445312 L 107.70117 -21.601562 L 106.98047 -21.734375 L 106.86914 -21.767578 L 106.76758 -21.824219 L 106.68359 -21.900391 L 106.61914 -21.996094 L 106.57812 -22.101562 L 106.56055 -22.216797 L 106.57227 -22.332031 L 106.60938 -22.439453 L 106.66992 -22.537109 L 106.88086 -22.828125 L 107.06445 -23.136719 L 107.33984 -23.685547 L 107.58789 -24.244141 L 107.80859 -24.816406 L 108.00195 -25.396484 L 108.16602 -25.988281 L 108.30078 -26.585938 L 108.4043 -27.189453 L 108.48047 -27.796875 L 108.52539 -28.408203 L 108.53906 -29.021484 L 108.52539 -29.412109 L 108.47852 -29.802734 L 108.40039 -30.1875 L 108.29492 -30.566406 L 108.1582 -30.935547 L 107.99219 -31.291016 L 107.80078 -31.634766 L 107.58203 -31.960938 L 107.33594 -32.267578 L 107.07031 -32.556641 L 106.78125 -32.824219 L 106.4707 -33.066406 L 106.14258 -33.285156 L 105.79688 -33.476562 L 105.43945 -33.640625 L 105.07031 -33.777344 L 104.69141 -33.882812 L 104.30273 -33.958984 L 103.91211 -34.005859 L 103.51758 -34.021484 z M 103.51562 -33.021484 L 103.86719 -33.005859 L 104.21484 -32.958984 L 104.55664 -32.884766 L 104.89062 -32.779297 L 105.21484 -32.646484 L 105.52734 -32.484375 L 105.82227 -32.296875 L 106.09961 -32.085938 L 106.35938 -31.849609 L 106.59375 -31.591797 L 106.80859 -31.314453 L 106.99805 -31.021484 L 107.1582 -30.710938 L 107.29297 -30.388672 L 107.39844 -30.054688 L 107.47461 -29.714844 L 107.51953 -29.369141 L 107.53516 -29.019531 L 107.52148 -28.457031 L 107.48047 -27.894531 L 107.41016 -27.335938 L 107.3125 -26.78125 L 107.18945 -26.230469 L 107.03906 -25.6875 L 106.86328 -25.152344 L 106.6582 -24.626953 L 106.42969 -24.111328 L 106.17578 -23.607422 L 106.03906 -23.376953 L 105.88086 -23.158203 L 105.75391 -22.974609 L 105.66016 -22.773438 L 105.59375 -22.560547 L 105.55859 -22.341797 L 105.55859 -22.119141 L 105.5918 -21.900391 L 105.65625 -21.6875 L 105.75195 -21.486328 L 105.87695 -21.302734 L 106.02539 -21.138672 L 106.19922 -20.998047 L 106.39258 -20.884766 L 106.59961 -20.800781 L 106.81445 -20.748047 L 107.5 -20.621094 L 108.17969 -20.472656 L 108.85352 -20.300781 L 109.52148 -20.105469 L 110.18164 -19.886719 L 110.83594 -19.644531 L 111.04688 -19.548828 L 111.24609 -19.427734 L 111.42969 -19.285156 L 111.5957 -19.123047 L 111.74023 -18.943359 L 111.86328 -18.744141 L 111.96289 -18.537109 L 112.12109 -18.119141 L 112.25586 -17.693359 L 112.36523 -17.259766 L 112.44922 -16.824219 L 112.50977 -16.380859 L 112.50781 -16.257812 L 112.47656 -16.136719 L 112.41406 -16.03125 L 112.33008 -15.939453 L 112.22461 -15.875 L 112.10547 -15.835938 L 110.97266 -15.632812 L 109.83398 -15.458984 L 108.69141 -15.3125 L 107.54492 -15.195312 L 106.39648 -15.109375 L 105.24414 -15.050781 L 104.09375 -15.021484 L 102.93945 -15.021484 L 101.78906 -15.050781 L 100.63867 -15.109375 L 99.490234 -15.195312 L 98.341797 -15.3125 L 97.201172 -15.458984 L 96.060547 -15.632812 L 94.927734 -15.835938 L 94.810547 -15.875 L 94.703125 -15.939453 L 94.619141 -16.03125 L 94.558594 -16.136719 L 94.525391 -16.257812 L 94.523438 -16.380859 L 94.585938 -16.824219 L 94.669922 -17.259766 L 94.779297 -17.693359 L 94.912109 -18.119141 L 95.070312 -18.537109 L 95.171875 -18.744141 L 95.294922 -18.943359 L 95.439453 -19.123047 L 95.605469 -19.285156 L 95.789062 -19.427734 L 95.988281 -19.548828 L 96.199219 -19.644531 L 96.851562 -19.886719 L 97.511719 -20.105469 L 98.179688 -20.300781 L 98.855469 -20.472656 L 99.535156 -20.621094 L 100.21875 -20.748047 L 100.43555 -20.800781 L 100.64258 -20.884766 L 100.83594 -20.998047 L 101.00781 -21.138672 L 101.15625 -21.302734 L 101.2832 -21.486328 L 101.37695 -21.6875 L 101.44141 -21.900391 L 101.47461 -22.119141 L 101.47461 -22.341797 L 101.43945 -22.560547 L 101.375 -22.773438 L 101.2793 -22.974609 L 101.1543 -23.158203 L 100.99609 -23.376953 L 100.85938 -23.607422 L 100.60352 -24.111328 L 100.375 -24.626953 L 100.17188 -25.152344 L 99.996094 -25.6875 L 99.845703 -26.230469 L 99.720703 -26.78125 L 99.625 -27.335938 L 99.554688 -27.894531 L 99.513672 -28.457031 L 99.498047 -29.019531 L 99.515625 -29.369141 L 99.560547 -29.714844 L 99.636719 -30.054688 L 99.742188 -30.388672 L 99.876953 -30.710938 L 100.03711 -31.021484 L 100.22656 -31.314453 L 100.43945 -31.591797 L 100.67578 -31.849609 L 100.93555 -32.085938 L 101.21289 -32.296875 L 101.50781 -32.484375 L 101.81836 -32.646484 L 102.14258 -32.779297 L 102.47656 -32.884766 L 102.82031 -32.958984 L 103.16797 -33.005859 L 103.51562 -33.021484 z M 38.5 -25.5 L 28.5 -15.5 L 30.140625 -13.859375 L 29.5 -15.5 L 34.527344 -20.527344 L 34.669922 -20.712891 L 34.962891 -21.035156 L 35.287109 -21.328125 L 35.464844 -21.464844 L 38.5 -24.5 L 41.533203 -21.466797 L 41.712891 -21.328125 L 42.037109 -21.035156 L 42.330078 -20.712891 L 42.476562 -20.523438 L 47.5 -15.5 L 46.859375 -13.859375 L 48.5 -15.5 L 38.5 -25.5 z M 46.859375 -13.859375 L 43.003906 -10.003906 L 43.65625 -9.8535156 L 44.498047 -9.6210938 L 45.125 -9.4199219 L 46.859375 -13.859375 z M 43.003906 -10.003906 L 42.806641 -10.050781 L 41.947266 -10.212891 L 41.822266 -10.25 L 41.712891 -10.318359 L 41.625 -10.412109 L 41.5625 -10.525391 L 41.533203 -10.652344 L 41.535156 -10.779297 L 41.570312 -10.904297 L 41.636719 -11.015625 L 41.847656 -11.306641 L 42.029297 -11.615234 L 42.333984 -12.224609 L 42.603516 -12.847656 L 42.839844 -13.486328 L 43.041016 -14.138672 L 43.205078 -14.796875 L 43.333984 -15.464844 L 43.425781 -16.140625 L 43.482422 -16.818359 L 43.5 -17.498047 L 43.482422 -17.933594 L 43.423828 -18.367188 L 43.330078 -18.792969 L 43.197266 -19.208984 L 43.03125 -19.611328 L 42.830078 -20 L 42.597656 -20.367188 L 42.476562 -20.523438 L 41.533203 -21.466797 L 41.369141 -21.59375 L 41 -21.830078 L 40.613281 -22.03125 L 40.210938 -22.197266 L 39.794922 -22.330078 L 39.367188 -22.423828 L 38.935547 -22.480469 L 38.5 -22.5 L 38.064453 -22.480469 L 37.632812 -22.423828 L 37.205078 -22.330078 L 36.789062 -22.197266 L 36.386719 -22.03125 L 36 -21.830078 L 35.632812 -21.59375 L 35.464844 -21.464844 L 34.527344 -20.527344 L 34.404297 -20.367188 L 34.169922 -20 L 33.96875 -19.611328 L 33.802734 -19.208984 L 33.669922 -18.792969 L 33.576172 -18.367188 L 33.519531 -17.933594 L 33.5 -17.498047 L 33.517578 -16.818359 L 33.574219 -16.140625 L 33.666016 -15.464844 L 33.794922 -14.796875 L 33.958984 -14.138672 L 34.160156 -13.486328 L 34.398438 -12.847656 L 34.666016 -12.224609 L 34.970703 -11.615234 L 35.152344 -11.306641 L 35.363281 -11.015625 L 35.429688 -10.904297 L 35.464844 -10.779297 L 35.46875 -10.652344 L 35.4375 -10.525391 L 35.375 -10.412109 L 35.287109 -10.318359 L 35.177734 -10.25 L 35.052734 -10.212891 L 34.195312 -10.050781 L 33.996094 -10.003906 L 34.84375 -9.15625 L 35.216797 -9.2265625 L 35.447266 -9.2832031 L 35.669922 -9.3769531 L 35.871094 -9.5039062 L 36.050781 -9.6640625 L 36.201172 -9.8476562 L 36.322266 -10.056641 L 36.410156 -10.279297 L 36.457031 -10.513672 L 36.470703 -10.751953 L 36.443359 -10.990234 L 36.378906 -11.220703 L 36.279297 -11.4375 L 36.148438 -11.634766 L 35.990234 -11.855469 L 35.853516 -12.083984 L 35.574219 -12.644531 L 35.326172 -13.220703 L 35.109375 -13.806641 L 34.923828 -14.40625 L 34.773438 -15.013672 L 34.654297 -15.628906 L 34.568359 -16.248047 L 34.515625 -16.871094 L 34.5 -17.498047 L 34.519531 -17.890625 L 34.578125 -18.279297 L 34.671875 -18.660156 L 34.804688 -19.029297 L 34.972656 -19.384766 L 35.173828 -19.720703 L 35.408203 -20.037109 L 35.669922 -20.328125 L 35.962891 -20.591797 L 36.277344 -20.826172 L 36.615234 -21.025391 L 36.970703 -21.195312 L 37.339844 -21.326172 L 37.71875 -21.421875 L 38.107422 -21.480469 L 38.5 -21.5 L 38.892578 -21.480469 L 39.28125 -21.421875 L 39.660156 -21.326172 L 40.029297 -21.195312 L 40.386719 -21.025391 L 40.722656 -20.826172 L 41.037109 -20.591797 L 41.330078 -20.328125 L 41.591797 -20.037109 L 41.826172 -19.720703 L 42.027344 -19.384766 L 42.195312 -19.029297 L 42.328125 -18.660156 L 42.423828 -18.279297 L 42.482422 -17.890625 L 42.5 -17.498047 L 42.484375 -16.871094 L 42.431641 -16.248047 L 42.345703 -15.628906 L 42.228516 -15.013672 L 42.076172 -14.40625 L 41.890625 -13.806641 L 41.673828 -13.220703 L 41.425781 -12.644531 L 41.146484 -12.083984 L 41.009766 -11.855469 L 40.851562 -11.634766 L 40.720703 -11.4375 L 40.621094 -11.220703 L 40.556641 -10.990234 L 40.529297 -10.751953 L 40.542969 -10.513672 L 40.591797 -10.279297 L 40.677734 -10.056641 L 40.798828 -9.8476562 L 40.951172 -9.6640625 L 41.128906 -9.5039062 L 41.330078 -9.3769531 L 41.552734 -9.2832031 L 41.783203 -9.2265625 L 42.15625 -9.15625 L 43.003906 -10.003906 z M 42.15625 -9.15625 L 40.080078 -7.0800781 L 44.3125 -8.6328125 L 44.212891 -8.6640625 L 43.412109 -8.8847656 L 42.599609 -9.0722656 L 42.15625 -9.15625 z M 40.080078 -7.0800781 L 38.5 -6.5 L 36.919922 -7.0800781 L 38.5 -5.5 L 40.080078 -7.0800781 z M 36.919922 -7.0800781 L 34.84375 -9.15625 L 34.400391 -9.0722656 L 33.587891 -8.8847656 L 32.787109 -8.6640625 L 32.6875 -8.6328125 L 36.919922 -7.0800781 z M 33.996094 -10.003906 L 30.140625 -13.859375 L 31.875 -9.4199219 L 32.501953 -9.6210938 L 33.34375 -9.8535156 L 33.996094 -10.003906 z M 61.25 -12.5 L 60.855469 -12.484375 L 60.464844 -12.4375 L 60.078125 -12.361328 L 59.699219 -12.255859 L 59.328125 -12.119141 L 58.970703 -11.955078 L 58.626953 -11.763672 L 58.298828 -11.544922 L 57.988281 -11.302734 L 57.699219 -11.035156 L 57.431641 -10.746094 L 57.1875 -10.439453 L 56.96875 -10.113281 L 56.775391 -9.7695312 L 56.609375 -9.4140625 L 56.474609 -9.0449219 L 56.367188 -8.6660156 L 56.289062 -8.28125 L 56.244141 -7.890625 L 56.228516 -7.5 L 56.244141 -6.8867188 L 56.287109 -6.2753906 L 56.363281 -5.6679688 L 56.46875 -5.0644531 L 56.603516 -4.4667969 L 56.767578 -3.875 L 56.958984 -3.2949219 L 57.179688 -2.7226562 L 57.429688 -2.1640625 L 57.705078 -1.6152344 L 57.888672 -1.3066406 L 58.097656 -1.015625 L 58.160156 -0.91796875 L 58.197266 -0.81054688 L 58.207031 -0.6953125 L 58.191406 -0.58007812 L 58.148438 -0.47460938 L 58.085938 -0.37890625 L 58 -0.30273438 L 57.898438 -0.24609375 L 57.789062 -0.21289062 L 57.068359 -0.080078125 L 56.355469 0.076171875 L 55.646484 0.25585938 L 54.945312 0.4609375 L 54.251953 0.69140625 L 53.566406 0.9453125 L 53.287109 1.0703125 L 53.023438 1.2226562 L 52.775391 1.4023438 L 52.546875 1.6035156 L 52.341797 1.828125 L 52.160156 2.0703125 L 52.003906 2.3320312 L 51.873047 2.6074219 L 51.695312 3.078125 L 51.544922 3.5566406 L 51.421875 4.0429688 L 51.326172 4.5351562 L 51.257812 5.03125 L 51.25 5.2363281 L 51.269531 5.4375 L 51.316406 5.6347656 L 51.388672 5.8242188 L 51.486328 6.0019531 L 51.605469 6.1660156 L 51.75 6.3105469 L 51.908203 6.4355469 L 52.085938 6.5371094 L 52.273438 6.6171875 L 52.470703 6.6660156 L 53.628906 6.875 L 54.792969 7.0527344 L 55.960938 7.2011719 L 57.132812 7.3203125 L 58.306641 7.4101562 L 59.484375 7.4707031 L 60.662109 7.5 L 61.837891 7.5 L 63.015625 7.4707031 L 63.25 7.4589844 L 63.25 6.4570312 L 62.976562 6.4707031 L 61.826172 6.5 L 60.671875 6.5 L 59.521484 6.4707031 L 58.371094 6.4121094 L 57.222656 6.3261719 L 56.074219 6.2089844 L 54.933594 6.0625 L 53.792969 5.8886719 L 52.660156 5.6855469 L 52.542969 5.6464844 L 52.435547 5.5820312 L 52.351562 5.4902344 L 52.291016 5.3847656 L 52.257812 5.2636719 L 52.255859 5.140625 L 52.318359 4.6972656 L 52.402344 4.2617188 L 52.511719 3.828125 L 52.644531 3.4023438 L 52.802734 2.984375 L 52.904297 2.7773438 L 53.027344 2.578125 L 53.171875 2.3984375 L 53.337891 2.2363281 L 53.521484 2.09375 L 53.720703 1.9726562 L 53.931641 1.8769531 L 54.583984 1.6347656 L 55.244141 1.4160156 L 55.912109 1.2207031 L 56.587891 1.0488281 L 57.267578 0.90039062 L 57.951172 0.7734375 L 58.167969 0.72070312 L 58.375 0.63671875 L 58.568359 0.5234375 L 58.740234 0.3828125 L 58.888672 0.21875 L 59.015625 0.03515625 L 59.109375 -0.16601562 L 59.173828 -0.37890625 L 59.207031 -0.59765625 L 59.207031 -0.8203125 L 59.171875 -1.0390625 L 59.107422 -1.2519531 L 59.011719 -1.453125 L 58.886719 -1.6367188 L 58.728516 -1.8554688 L 58.591797 -2.0859375 L 58.335938 -2.5898438 L 58.107422 -3.1054688 L 57.904297 -3.6308594 L 57.728516 -4.1660156 L 57.578125 -4.7089844 L 57.453125 -5.2597656 L 57.357422 -5.8144531 L 57.287109 -6.3730469 L 57.246094 -6.9355469 L 57.230469 -7.4980469 L 57.248047 -7.8476562 L 57.292969 -8.1933594 L 57.369141 -8.5332031 L 57.474609 -8.8671875 L 57.609375 -9.1894531 L 57.769531 -9.5 L 57.958984 -9.7929688 L 58.171875 -10.070312 L 58.408203 -10.328125 L 58.667969 -10.564453 L 58.945312 -10.775391 L 59.240234 -10.962891 L 59.550781 -11.125 L 59.875 -11.257812 L 60.208984 -11.363281 L 60.552734 -11.4375 L 60.900391 -11.484375 L 61.248047 -11.5 L 61.599609 -11.484375 L 61.947266 -11.4375 L 62.289062 -11.363281 L 62.623047 -11.257812 L 62.947266 -11.125 L 63.259766 -10.962891 L 63.554688 -10.775391 L 63.832031 -10.564453 L 64.091797 -10.328125 L 64.326172 -10.070312 L 64.541016 -9.7929688 L 64.730469 -9.5 L 64.890625 -9.1894531 L 65.025391 -8.8671875 L 65.130859 -8.5332031 L 65.207031 -8.1933594 L 65.251953 -7.8476562 L 65.267578 -7.4980469 L 65.253906 -6.9355469 L 65.212891 -6.3730469 L 65.142578 -5.8144531 L 65.044922 -5.2597656 L 64.921875 -4.7089844 L 64.771484 -4.1660156 L 64.595703 -3.6308594 L 64.390625 -3.1054688 L 64.162109 -2.5898438 L 63.908203 -2.0859375 L 63.771484 -1.8554688 L 63.613281 -1.6367188 L 63.486328 -1.453125 L 63.392578 -1.2519531 L 63.326172 -1.0390625 L 63.291016 -0.8203125 L 63.291016 -0.59765625 L 63.324219 -0.37890625 L 63.388672 -0.16601562 L 63.484375 0.03515625 L 63.609375 0.21875 L 63.757812 0.3828125 L 63.931641 0.5234375 L 64.125 0.63671875 L 64.28125 0.69921875 L 64.507812 -0.29882812 L 64.5 -0.30273438 L 64.416016 -0.37890625 L 64.351562 -0.47460938 L 64.310547 -0.58007812 L 64.292969 -0.6953125 L 64.304688 -0.81054688 L 64.341797 -0.91796875 L 64.402344 -1.015625 L 64.613281 -1.3066406 L 64.796875 -1.6152344 L 65.072266 -2.1640625 L 65.320312 -2.7226562 L 65.541016 -3.2949219 L 65.734375 -3.875 L 65.898438 -4.4667969 L 66.033203 -5.0644531 L 66.136719 -5.6679688 L 66.212891 -6.2753906 L 66.257812 -6.8867188 L 66.271484 -7.5 L 66.257812 -7.890625 L 66.210938 -8.28125 L 66.132812 -8.6660156 L 66.027344 -9.0449219 L 65.890625 -9.4140625 L 65.724609 -9.7695312 L 65.533203 -10.113281 L 65.314453 -10.439453 L 65.068359 -10.746094 L 64.802734 -11.035156 L 64.513672 -11.302734 L 64.203125 -11.544922 L 63.875 -11.763672 L 63.529297 -11.955078 L 63.171875 -12.119141 L 62.802734 -12.255859 L 62.423828 -12.361328 L 62.035156 -12.4375 L 61.644531 -12.484375 L 61.25 -12.5 z M 67.75 -1.5 L 65.25 1 L 65.25 2.5 L 64.25 2.5 L 64.25 7.5 L 71.25 7.5 L 71.25 2.5 L 70.25 2.5 L 70.25 1 L 67.75 -1.5 z M 67.75 -0.5 L 69.25 1 L 69.25 2.5 L 66.25 2.5 L 66.25 1 L 67.75 -0.5 z M 5 0 L 4 1 L 1 1 L 1 17 L 6 17 L 6 16 L 2 16 L 2 2 L 4 2 L 4 3 L 11 3 L 11 2 L 13 2 L 13 3 L 14 3 L 14 1 L 11 1 L 10 0 L 5 0 z M 5.4140625 1 L 9.5859375 1 L 10 1.4140625 L 10 2 L 5 2 L 5 1.4140625 L 5.4140625 1 z M 65.25 3.5 L 70.25 3.5 L 70.25 6.5 L 65.25 6.5 L 65.25 3.5 z M 7 4 L 7 20 L 19 20 L 19 8 L 15 4 L 7 4 z M 8 5 L 14 5 L 14 9 L 18 9 L 18 19 L 8 19 L 8 5 z M 15 5.3535156 L 17.646484 8 L 15 8 L 15 5.3535156 z M 3 6 L 3 7 L 6 7 L 6 6 L 3 6 z M 9 6 L 9 10 L 13 10 L 13 6 L 9 6 z M 10 7 L 12 7 L 12 9 L 10 9 L 10 7 z M 3 8 L 3 9 L 6 9 L 6 8 L 3 8 z M 3 10 L 3 11 L 6 11 L 6 10 L 3 10 z M 9 11 L 9 12 L 17 12 L 17 11 L 9 11 z M 3 12 L 3 13 L 6 13 L 6 12 L 3 12 z M 9 13 L 9 14 L 17 14 L 17 13 L 9 13 z M 9 15 L 9 16 L 17 16 L 17 15 L 9 15 z M 9 17 L 9 18 L 17 18 L 17 17 L 9 17 z " style="fill:#ffffff; fill-opacity:1;  stroke-width:0.0002;"/> </g> </g>
</svg>