<?xml version="1.0" encoding="utf-8"?>

<!-- Uploaded to: SVG Repo, www.svgrepo.com, Generator: SVG Repo Mixer Tools -->
<svg version="1.1" id="Icons" xmlns="http://www.w3.org/2000/svg" xmlns:xlink="http://www.w3.org/1999/xlink" 
	 viewBox="0 0 32 32" xml:space="preserve">
<style type="text/css">
	.st0{fill:none;stroke:#000000;stroke-width:2;stroke-linecap:round;stroke-linejoin:round;stroke-miterlimit:10;}
</style>
<path class="st0" d="M7,24L7,24c-1.1,0-2-0.9-2-2V10c0-1.1,0.9-2,2-2h0c1.1,0,2,0.9,2,2v12C9,23.1,8.1,24,7,24z"/>
<path class="st0" d="M3,21L3,21c-1.1,0-2-0.9-2-2v-6c0-1.1,0.9-2,2-2h0c1.1,0,2,0.9,2,2v6C5,20.1,4.1,21,3,21z"/>
<path class="st0" d="M25,8L25,8c1.1,0,2,0.9,2,2v12c0,1.1-0.9,2-2,2h0c-1.1,0-2-0.9-2-2V10C23,8.9,23.9,8,25,8z"/>
<path class="st0" d="M29,11L29,11c1.1,0,2,0.9,2,2v6c0,1.1-0.9,2-2,2h0c-1.1,0-2-0.9-2-2v-6C27,11.9,27.9,11,29,11z"/>
<line class="st0" x1="9" y1="16" x2="23" y2="16"/>
</svg>